<svg width="253" height="259" viewBox="0 0 253 259" fill="none" xmlns="http://www.w3.org/2000/svg">
<g clip-path="url(#clip0_1589_65)">
<path d="M54.9302 111.905C51.7256 116.034 41.6426 135.375 41.6503 156.084C41.6567 173.329 58.9433 189.956 69.3509 200.461C79.3535 210.557 89.6449 216.581 102.707 222.508C121.445 231.009 139.065 226.114 158.358 221.528C174.104 217.786 187.241 203.51 200.357 193.539C210.338 185.951 213.866 175.209 223.987 143.533C231.048 121.433 223.277 100.601 218.925 87.2744C214.908 74.9731 202.581 67.7163 192.047 57.6392C180.523 46.6143 153.117 38.7489 131.733 36.9586C117.309 35.7509 100.933 41.563 87.1649 46.3315C69.6624 52.3934 53.3236 66.7404 39.8471 81.3281C30.9895 90.916 25.7266 106.553 25.039 121.526C25.7596 127.917 28.1692 134.888 31.9928 141.815C33.8482 144.816 35.5309 146.773 37.2647 148.789" stroke="#FF0000" stroke-width="8" stroke-linecap="round"/>
<path d="M80.3662 98.021C88.3411 100.624 97.8986 105.575 108.633 116.926C113.585 123.156 118.141 129.292 122.448 134.625C124.512 136.936 126.327 138.444 127.752 137.077" stroke="#FF0000" stroke-width="8" stroke-linecap="round"/>
<path d="M121.047 98.9983C117.926 99.8336 113.781 102.217 108.884 106.224C104.417 110.37 98.5962 116.434 92.0135 123.402C89.0799 126.462 86.9726 128.555 81.4295 136.634" stroke="#FF0000" stroke-width="8" stroke-linecap="round"/>
<path d="M165.433 101.185C169.012 104.698 172.792 116.322 177.212 126.79C178.448 129.567 179.741 132.804 181.192 135.665C182.642 138.526 184.212 140.915 185.829 143.375" stroke="#FF0000" stroke-width="8" stroke-linecap="round"/>
<path d="M197.494 103.449C196.361 104.013 191.673 106.696 183.479 112.009C179.39 114.93 175.439 118.306 172.348 121.1C169.256 123.894 167.144 126.004 160.699 132.44" stroke="#FF0000" stroke-width="8" stroke-linecap="round"/>
<path d="M91.6975 176.362C95.4775 177.596 107.549 180.605 119.887 180.175C131.087 179.785 141.755 179.104 152.167 175.91C164.233 172.207 170.981 164.175 175.479 164.691C180.6 165.279 180.48 173.819 180.784 178.607C179.459 191.312 174.312 204.242 170.754 208.003C168.72 209.934 166.222 211.911 159.011 215.255" stroke="#FF0000" stroke-width="8" stroke-linecap="round"/>
<path d="M87.8633 179.734C87.5851 180.587 86.3292 184.435 85.7176 191.836C88.3666 200.302 92.608 206.987 96.5609 210.891C98.4856 212.72 100.245 214.237 103.294 216.204" stroke="#FF0000" stroke-width="8" stroke-linecap="round"/>
</g>
<defs>
<clipPath id="clip0_1589_65">
<rect width="253" height="259" fill="white"/>
</clipPath>
</defs>
</svg>
