<svg width="783" height="733" viewBox="0 0 783 733" fill="none" xmlns="http://www.w3.org/2000/svg">
<path d="M167.982 211.494C171.013 225.397 175.288 242.094 184.66 278.903C190.114 300.324 194.556 323.891 196.309 340.052C197.822 353.994 201.167 367.758 201.632 374.481C202.363 385.033 192.569 345.816 179.839 335.951C174.092 331.498 166.956 333.542 161.253 334.68C146.645 337.594 132.933 356.667 126.664 368.592C125.567 370.68 126.111 373.245 127.324 376.014C130.117 382.387 135.698 385.646 140.102 386.657C153.53 386.523 172.318 380.077 183.077 374.281C187.52 371.945 189.898 370.838 192.347 369.698" stroke="#FF0000" stroke-width="8" stroke-linecap="round"/>
<path d="M231.077 357.983C243.979 340.037 257.233 324.261 278.206 295.477C284.153 287.316 285.453 282.846 285.053 278.282C284.855 276.023 283.588 274.039 281.6 273.249C277.004 271.424 270.183 274.912 264.24 277.878C253.577 283.199 247.663 300.077 242.44 312.625C240.501 317.283 238.363 322.477 236.995 328.944C235.795 334.623 237.95 340.603 241.055 345.724C243.616 349.948 251.864 350.498 262.308 350.862C285.491 343.885 296.361 335.912 305.821 326.404C309.285 323.008 314.462 318.342 323.447 310.082" stroke="#FF0000" stroke-width="8" stroke-linecap="round"/>
<path d="M310.392 154.329C311.326 158.697 312.26 163.065 318.292 184.949C324.324 206.833 335.426 246.101 341.752 267.697C348.913 292.14 352.113 297.466 355.646 302.063C358.905 306.303 365.005 306.507 371.404 305.746C379.718 303.631 386.496 301.193 390.642 298.771C392.766 297.347 394.929 295.531 398.007 288.705" stroke="#FF0000" stroke-width="8" stroke-linecap="round"/>
<path d="M325.394 266.045C325.89 265.12 337.703 254.172 355.996 237.683C362.73 231.666 364.291 230.419 366.461 229.169C368.631 227.92 371.364 226.706 376.332 224.804" stroke="#FF0000" stroke-width="8" stroke-linecap="round"/>
<path d="M374.891 111.335C375.535 113.465 376.179 115.595 381.917 135.208C387.656 154.821 398.469 191.852 404.183 212.047C411.741 242.218 414.688 255.841 415.987 262.077C416.889 265.72 418.285 270.335 422.101 279.069" stroke="#FF0000" stroke-width="8" stroke-linecap="round"/>
<path d="M419.193 230.628C428.719 208.313 452.816 172.325 453.919 171.393C465.426 161.667 436.664 200.261 429.082 210.775C423.249 218.862 422.88 225.967 423.581 230.246C449.928 242.328 500.272 258.137 510.302 260.957C515.32 262.581 520.191 264.595 525.211 266.67" stroke="#FF0000" stroke-width="8" stroke-linecap="round"/>
<path d="M516.565 156.554C518.071 161.535 521.048 173.94 526.74 198.581C529.247 215.295 531.939 229.359 533.713 235.904C533.9 235.882 533.611 233.645 533.313 231.339" stroke="#FF0000" stroke-width="8" stroke-linecap="round"/>
<path d="M504.75 121.377C505.365 124.69 507.306 131.149 510.353 134.137C513.129 136.86 518.571 134.81 523.063 132.871C527.144 131.108 528.796 125.87 530.058 120.997C531.149 116.782 530.037 111.803 527.616 107.644C525.637 104.242 518.672 107.772 513.695 110.052C511.559 111.473 510.214 113.43 508.794 115.239C507.375 117.048 505.922 118.65 500.772 123.754" stroke="#FF0000" stroke-width="8" stroke-linecap="round"/>
<path d="M404.333 407.626C405.143 413.964 405.952 420.302 405.164 452.082C404.376 483.862 401.967 540.892 400.841 571.871C399.978 614.073 399.726 626.516 399.998 631.916C400.103 634.463 400.142 636.618 401.155 644.121" stroke="#FF0000" stroke-width="8" stroke-linecap="round"/>
<path d="M405.481 412.85C410.096 404.382 421.776 396.401 431.58 392.04C448.961 384.309 468.49 401.912 478.703 413.49C482.21 417.466 484.53 425.136 485.28 436.074C485.624 441.091 483.129 445.027 479.097 448.886C456.009 470.98 421.649 466.641 412.189 464.92C407.946 463.71 404.287 461.831 401.091 459.337C399.551 457.978 398.18 456.431 396.767 454.836" stroke="#FF0000" stroke-width="8" stroke-linecap="round"/>
<path d="M503.461 394.468C504.684 401.1 505.86 415.305 506.263 427.424C506.6 437.53 503.42 449.488 503.058 456.477C502.651 464.356 505.453 427.204 505.906 412.71C506.199 403.326 506.977 393.864 509.232 386.362C516.362 381.592 525.233 378.5 534.051 374.891C536.426 373.905 539.152 373.043 544.937 370.521" stroke="#FF0000" stroke-width="8" stroke-linecap="round"/>
<path d="M565.351 378.948C561.782 381.057 556.671 388.571 552.605 397.931C548.124 408.25 551.934 423.82 557.392 432.957C562.182 440.975 573.921 437.438 588.525 434.394C594.8 433.086 597.38 427.278 599.292 422.002C601.968 414.618 600.279 403.709 597.695 393.575C594.186 379.811 580.057 376.249 575.578 375.426C573.37 375.272 571.294 375.655 569.52 376.889C567.747 378.122 566.34 380.195 564.233 384.649" stroke="#FF0000" stroke-width="8" stroke-linecap="round"/>
<path d="M675.157 293.64C676.961 303.429 678.678 320.514 680.484 335.283C681.117 340.457 684.855 363.907 689.69 394.99C691.213 404.786 688.434 402.745 686.124 400.076C676.799 389.3 669.174 382.673 661.14 378.325C651.791 373.264 640.314 381.042 632.652 386.627C624.376 392.66 623.618 404.429 623.771 415.118C623.81 417.836 624.011 420.331 625.057 422.154C629.169 429.314 642.992 425.592 656.999 423.021C667.131 418.974 673.872 416.282 677.833 414.282C679.844 413.361 681.858 412.631 687.936 410.05" stroke="#FF0000" stroke-width="8" stroke-linecap="round"/>
<path d="M185.704 525.234C184.345 529.02 181.587 545.581 186.538 560.732C190.661 573.348 207.28 581.386 217.405 586.587C227.135 591.586 236.104 593.536 247.077 594.753C262.818 596.498 274.541 588.709 287.563 580.746C298.191 574.247 304.394 560.664 311.61 550.236C317.101 542.3 317.117 533.597 316.958 508.002C316.847 490.145 306.185 476.759 299.818 468.046C293.941 460.005 283.188 457.639 273.074 452.781C262.009 447.466 240.077 448.256 224.003 452.053C213.161 454.614 202.566 462.778 193.63 469.555C182.271 478.17 173.742 492.57 167.365 506.462C163.174 515.593 163.057 528.292 166.13 539.412C168.184 543.916 171.611 548.441 176.064 552.597C178.138 554.35 179.837 555.38 181.587 556.441" stroke="#FF0000" stroke-width="8" stroke-linecap="round"/>
<path d="M201 509C207.457 509 215.633 510.34 226.198 516.082C231.309 519.458 236.108 522.86 240.534 525.733C242.595 526.931 244.284 527.602 245 526.261" stroke="#FF0000" stroke-width="8" stroke-linecap="round"/>
<path d="M231 500C228.916 501.357 226.453 504.09 223.826 508.191C221.547 512.292 218.737 518.12 215.584 524.79C214.168 527.729 213.126 529.765 211 537" stroke="#FF0000" stroke-width="8" stroke-linecap="round"/>
<path d="M264 491C267.458 492.716 273 500.318 278.734 506.922C280.302 508.659 282.021 510.718 283.766 512.466C285.51 514.213 287.229 515.586 289 517" stroke="#FF0000" stroke-width="8" stroke-linecap="round"/>
<path d="M288 485C287.305 485.683 284.516 488.765 279.789 494.61C277.495 497.724 275.41 501.138 273.816 503.921C272.221 506.703 271.179 508.752 268 515" stroke="#FF0000" stroke-width="8" stroke-linecap="round"/>
<path d="M228 563.617C231.061 563.617 240.612 562.936 249.537 559.675C257.639 556.715 265.282 553.669 272.138 548.845C280.083 543.254 283.102 535.765 286.517 535.069C290.404 534.276 292.356 540.553 293.721 543.984C295.786 553.597 295.108 564.288 293.403 567.889C292.376 569.788 291.02 571.831 286.542 576" stroke="#FF0000" stroke-width="8" stroke-linecap="round"/>
<path d="M226 567C226 567.69 226 570.806 227.32 576.367C231.28 581.929 235.98 585.808 239.805 587.721C241.65 588.599 243.3 589.289 246 590" stroke="#FF0000" stroke-width="8" stroke-linecap="round"/>
</svg>
